<svg width="157" height="55" viewBox="0 0 157 55" fill="none" xmlns="http://www.w3.org/2000/svg">
<g clip-path="url(#clip0_1_1390)">
<path d="M156.734 0.0624084H140.058L131.375 17.9831L122.691 0.0624084H78.5609V12.036L75.0158 0.0624084H55.167L44.9995 36.213L45.0137 24.0442H22.4068V35.3466C22.4068 35.3466 31.356 35.1839 31.3703 35.3466C31.7099 39.3554 29.8509 42.0809 22.9641 41.9649C16.3397 41.8592 12.3614 34.3805 12.4061 28.3256C12.4366 22.6652 14.7024 13.5411 22.2706 13.297C31.3825 13.0001 31.5065 21.0157 31.5065 21.0157H45.2883V11.0475L33.7072 0.0624084H11.0332L0.0765991 11.0475V44.0314L11.0332 54.9209H33.6645L42.1378 46.23L39.7296 54.9209H55.167L57.8619 44.727H73.2707L73.2992 44.7168L76.2524 54.9209H105.994V13.8421H112.932L119.243 26.9445L108.49 54.9209H123.787L131.508 35.6252L140.884 54.9209H156.457L143.642 26.9445L156.734 0.0624084ZM61.0978 32.2754L65.2246 16.8808L69.685 32.2754H61.0978ZM90.6932 52.948L79.0979 13.8421H90.6932V52.948Z" fill="#143B68"/>
</g>
<defs>
<clipPath id="clip0_1_1390">
<rect width="156.865" height="55" fill="white"/>
</clipPath>
</defs>
</svg>
