<?xml version="1.0" encoding="UTF-8" standalone="no"?>
<!-- Created with Inkscape (http://www.inkscape.org/) -->
<svg
   xmlns:svg="http://www.w3.org/2000/svg"
   xmlns="http://www.w3.org/2000/svg"
   version="1.0"
   width="956.69287"
   height="380.90552"
   id="svg2">
  <defs
     id="defs4" />
  <g
     transform="translate(267.3981,-143.88719)"
     id="layer1">
    <path
       d="M 653.86172,179.24004 L 559.56659,179.24004 L 510.46964,280.57367 L 461.36119,179.24004 L 211.82815,179.24004 L 211.82815,246.9453 L 191.78224,179.24004 L 79.54585,179.24004 L 22.053308,383.65541 L 22.133814,314.84608 L -105.69767,314.84608 L -105.69767,378.75607 C -105.69767,378.75607 -55.094115,377.836 -55.01361,378.75607 C -53.092975,401.42416 -63.604714,416.83525 -102.54645,416.1797 C -140.00459,415.58166 -162.50017,373.29319 -162.24715,339.05528 C -162.07464,307.04853 -149.26274,255.4559 -106.46823,254.0758 C -54.944605,252.39669 -54.243056,297.72137 -54.243056,297.72137 L 23.686423,297.72137 L 23.686423,241.35591 L -41.799181,179.24004 L -170.01019,179.24004 L -231.96505,241.35591 L -231.96505,427.86452 L -170.01019,489.43985 L -42.040698,489.43985 L 5.8716695,440.2969 L -7.7452875,489.43985 L 79.54585,489.43985 L 94.784421,431.7978 L 181.91454,431.7978 L 182.07556,431.74029 L 198.77473,489.43985 L 366.95105,489.43985 L 366.95105,257.15802 L 406.18031,257.15802 L 441.86732,331.24623 L 381.06254,489.43985 L 467.56013,489.43985 L 511.21719,380.33168 L 564.23592,489.43985 L 652.29761,489.43985 L 579.83102,331.24623 L 653.86172,179.24004 M 113.08221,361.38985 L 136.41735,274.34023 L 161.63862,361.38985 L 161.70762,361.55086 L 161.63862,361.38985 L 113.08221,361.38985 M 280.43047,478.28407 L 214.86436,257.15802 L 280.43047,257.15802 L 280.43047,478.28407"
       id="path3875"
       style="fill:#143b68;fill-opacity:1;fill-rule:nonzero;stroke:none" />
  </g>
</svg>
